<svg width="68" height="69" viewBox="0 0 68 69" fill="none" xmlns="http://www.w3.org/2000/svg">
<path fill-rule="evenodd" clip-rule="evenodd" d="M30.1116 8.98514C30.106 8.9851 30.1003 8.9851 30.0946 8.98514C30.0589 8.99041 30.0234 8.99753 29.9884 9.00641C29.8991 9.02009 29.812 9.04503 29.7291 9.08073L5.15988 19.5889C4.99607 19.6162 4.84096 19.6816 4.707 19.7798C4.57304 19.878 4.46395 20.0062 4.3885 20.1541C4.38559 20.1612 4.38276 20.1683 4.38 20.1754C4.25961 20.3958 4.22121 20.6517 4.27162 20.8978V52.5308C4.27181 52.5741 4.27465 52.6172 4.28012 52.6602C4.28005 52.6673 4.28005 52.6744 4.28012 52.6815C4.28368 52.7036 4.28793 52.7256 4.29287 52.7474C4.32347 52.9242 4.39836 53.0905 4.51058 53.2306C4.62281 53.3707 4.76869 53.4799 4.93462 53.5484L29.7291 64.1524C29.8476 64.2032 29.9743 64.2318 30.1031 64.2372C30.1187 64.2376 30.1343 64.2376 30.1499 64.2372C30.1513 64.2372 30.1527 64.2372 30.1541 64.2372C30.1647 64.2374 30.1754 64.2374 30.186 64.2372C30.2002 64.2375 30.2143 64.2375 30.2285 64.2372C30.2504 64.2379 30.2724 64.2379 30.2944 64.2372C30.4026 64.2272 30.5087 64.2008 30.6089 64.1586L44.0941 58.3893C45.1175 60.1678 46.591 61.6457 48.3666 62.6741C50.1422 63.7025 52.1572 64.2452 54.2091 64.2478C60.6521 64.2478 65.8966 59.0033 65.8966 52.5603C65.8966 46.7527 61.6296 41.9353 56.0685 41.0407V20.9722C56.1104 20.8161 56.1161 20.6524 56.0852 20.4937C56.0542 20.3349 55.9875 20.1853 55.89 20.0563C55.8082 19.9335 55.7017 19.8291 55.5773 19.7497C55.4529 19.6703 55.3133 19.6178 55.1675 19.5954L30.6089 9.08929C30.5208 9.0507 30.4278 9.02428 30.3326 9.01069C30.3227 9.01055 30.3128 9.01055 30.3029 9.01069C30.2767 9.00972 30.2504 9.00972 30.2242 9.01069C30.1867 9.0087 30.1491 9.0087 30.1116 9.01069V8.98514ZM30.169 11.2016L35.3795 13.4264L13.3007 22.8677C13.2806 22.877 13.2608 22.887 13.2412 22.8975L8.0265 20.6685L30.169 11.2016ZM38.0846 14.5845L44.4022 17.2854L21.9112 26.9032C21.6962 26.9944 21.5172 27.1539 21.4019 27.3571C21.2867 27.5603 21.2417 27.796 21.2738 28.0274C21.272 28.055 21.2712 28.0825 21.2716 28.1101V39.4747L18.9681 36.0195C18.8245 35.8038 18.607 35.6479 18.3565 35.5814C18.106 35.5148 17.8399 35.5421 17.6081 35.6581L14.8966 37.0117V24.4998L38.0846 14.5845ZM47.0989 18.4392L52.3115 20.6685L30.169 30.1394L24.9628 27.9104L47.0372 18.469C47.0588 18.4598 47.0801 18.4498 47.101 18.4392H47.0989ZM6.39662 22.2856L12.7716 25.0098V38.7351C12.7718 38.916 12.8182 39.0939 12.9063 39.2519C12.9945 39.4098 13.1215 39.5427 13.2754 39.6379C13.4293 39.733 13.6049 39.7873 13.7856 39.7956C13.9663 39.8038 14.1461 39.7657 14.308 39.6851L17.7186 37.9787L21.3906 43.4866C21.4891 43.6776 21.6431 43.8344 21.8324 43.9361C22.0217 44.0378 22.2374 44.0796 22.451 44.0562C22.4882 44.0511 22.5251 44.044 22.5615 44.0349C22.5728 44.0351 22.5842 44.0351 22.5955 44.0349C22.6191 44.0287 22.6425 44.0215 22.6656 44.0137C22.7663 43.9812 22.8615 43.9339 22.9482 43.8733C23.1079 43.7621 23.234 43.6093 23.3127 43.4313C23.3914 43.2533 23.4197 43.057 23.3945 42.864V29.5573L29.1065 31.9988V61.5703L6.39662 51.8548V22.2918V22.2856ZM53.9435 22.2856V40.8729C51.3504 40.936 48.8518 41.8591 46.8405 43.4969C44.8291 45.1348 43.419 47.3947 42.8319 49.9212L40.2139 51.0369L34.0174 53.6887C33.7581 53.7992 33.5534 54.0081 33.4482 54.2695C33.343 54.531 33.3459 54.8235 33.4564 55.0827C33.5668 55.342 33.7758 55.5467 34.0372 55.6519C34.2986 55.7571 34.5911 55.7543 34.8504 55.6438L41.0469 52.9917L42.5301 52.3606C42.5301 52.4222 42.5216 52.4839 42.5216 52.5476C42.5216 53.9161 42.7724 55.2251 43.2059 56.4449L31.2315 61.5662V31.9946L53.9435 22.2856ZM54.2091 42.9831C59.5025 42.9831 63.7716 47.2543 63.7716 52.5456C63.7716 57.8411 59.5025 62.1081 54.2091 62.1081C52.9527 62.1103 51.7083 61.8644 50.5471 61.3846C49.3859 60.9048 48.3308 60.2007 47.4424 59.3123C46.554 58.4239 45.8497 57.3687 45.37 56.2075C44.8902 55.0463 44.6444 53.802 44.6466 52.5456C44.6466 47.2543 48.9157 42.9831 54.2091 42.9831ZM40.5964 46.708C40.4643 46.7144 40.3346 46.7456 40.2139 46.7996L34.0174 49.4514C33.8809 49.5002 33.7559 49.5764 33.65 49.6753C33.5441 49.7742 33.4595 49.8937 33.4015 50.0265C33.3435 50.1593 33.3133 50.3026 33.3127 50.4475C33.3121 50.5924 33.3411 50.7361 33.398 50.8693C33.4549 51.0026 33.5385 51.1226 33.6436 51.2224C33.7486 51.3221 33.873 51.3994 34.0091 51.4493C34.1451 51.4993 34.2899 51.521 34.4346 51.5129C34.5793 51.5048 34.7208 51.4672 34.8504 51.4024L41.0469 48.7544C41.2797 48.6604 41.4718 48.4869 41.5889 48.2647C41.706 48.0425 41.7406 47.7862 41.6866 47.541C41.6326 47.2957 41.4935 47.0773 41.2939 46.9249C41.0943 46.7725 40.8472 46.6956 40.5964 46.708ZM60.5289 47.8024C60.2883 47.8017 60.0545 47.8827 59.8659 48.032L51.623 54.3219L48.8456 50.922C48.6675 50.7036 48.41 50.565 48.1296 50.5365C47.8493 50.508 47.5691 50.5919 47.3507 50.77C47.1323 50.9481 46.9936 51.2058 46.9651 51.4862C46.9366 51.7665 47.0207 52.0468 47.1987 52.2652L51.2787 57.2589L61.1557 49.7215C61.3361 49.589 61.47 49.403 61.5384 49.19C61.6069 48.977 61.6063 48.7477 61.5368 48.535C61.4673 48.3223 61.3325 48.1371 61.1515 48.0056C60.9705 47.874 60.7526 47.8029 60.5289 47.8024Z" fill="#EA161B"/>
</svg>
